
    <svg xmlns="http://www.w3.org/2000/svg" viewBox="0 0 1920 1080" width="1920" height="1080">
      
  <defs>
    <!-- Drop Shadow Filter -->
    <filter id="shadow" x="-10%" y="-10%" width="125%" height="125%">
      <feDropShadow dx="3" dy="6" stdDeviation="8" flood-opacity="0.25"/>
    </filter>
    <filter id="shadow-soft" x="-10%" y="-10%" width="125%" height="125%">
      <feDropShadow dx="2" dy="4" stdDeviation="4" flood-opacity="0.15"/>
    </filter>
    <filter id="shadow-deep" x="-10%" y="-10%" width="130%" height="130%">
      <feDropShadow dx="6" dy="10" stdDeviation="12" flood-opacity="0.35"/>
    </filter>

    <!-- Wood Texture Gradient -->
    <linearGradient id="woodPlank" x1="0%" y1="0%" x2="0%" y2="100%">
      <stop offset="0%" stop-color="#7c5335"/>
      <stop offset="25%" stop-color="#694328"/>
      <stop offset="50%" stop-color="#5a381f"/>
      <stop offset="75%" stop-color="#6f482d"/>
      <stop offset="100%" stop-color="#4d2e18"/>
    </linearGradient>

    <!-- Kraft Paper Gradient -->
    <linearGradient id="kraftPaper" x1="0%" y1="0%" x2="100%" y2="100%">
      <stop offset="0%" stop-color="#e8d9c2"/>
      <stop offset="40%" stop-color="#decaa7"/>
      <stop offset="80%" stop-color="#d4bf9c"/>
      <stop offset="100%" stop-color="#c9b28b"/>
    </linearGradient>

    <!-- Fabric Stitch Pattern -->
    <pattern id="stitch" width="12" height="12" patternUnits="userSpaceOnUse">
      <line x1="0" y1="0" x2="6" y2="0" stroke="rgba(255,255,255,0.4)" stroke-width="1.5" stroke-dasharray="3,3"/>
    </pattern>

    <!-- Pin Head Gradient -->
    <radialGradient id="silverPin" cx="35%" cy="35%" r="65%">
      <stop offset="0%" stop-color="#ffffff"/>
      <stop offset="50%" stop-color="#c0c0c0"/>
      <stop offset="100%" stop-color="#555555"/>
    </radialGradient>
    <radialGradient id="brassPin" cx="35%" cy="35%" r="65%">
      <stop offset="0%" stop-color="#fff2a8"/>
      <stop offset="50%" stop-color="#d4af37"/>
      <stop offset="100%" stop-color="#664d03"/>
    </radialGradient>
    <radialGradient id="redPin" cx="35%" cy="35%" r="65%">
      <stop offset="0%" stop-color="#ff8585"/>
      <stop offset="50%" stop-color="#dc2626"/>
      <stop offset="100%" stop-color="#7f1d1d"/>
    </radialGradient>
  </defs>

      <rect width="1920" height="1080" fill="url(#kraftPaper)" />
      <rect width="1920" height="1080" fill="none" stroke="rgba(0,0,0,0.06)" stroke-width="40" />

      
    <!-- Top Pinned Fabric Tags -->
    <g filter="url(#shadow)">
      <!-- Tag 1 -->
      <g transform="rotate(-1 100 110)">
        <rect x="90" y="105" width="410" height="92" rx="4" fill="#1e3a8a" />
        <rect x="94" y="109" width="402" height="84" rx="3" fill="none" stroke="rgba(255,255,255,0.6)" stroke-width="2" stroke-dasharray="6,4" />
        <text x="295" y="165" font-family="'Noto Sans Bengali', 'Hind Siliguri', sans-serif" font-weight="700" font-size="34" fill="#ffffff" text-anchor="middle">অফিসিয়াল ওয়ারেন্টি</text>
        <!-- Pin -->
        <circle cx="106" cy="120" r="9" fill="url(#silverPin)" filter="url(#shadow-soft)" />
        <line x1="106" y1="120" x2="114" y2="132" stroke="#333" stroke-width="2" />
      </g>

      <!-- Tag 2 -->
      <g transform="rotate(1.5 530 110)">
        <rect x="525" y="112" width="400" height="88" rx="4" fill="#e5ab37" />
        <rect x="529" y="116" width="392" height="80" rx="3" fill="none" stroke="rgba(0,0,0,0.2)" stroke-width="2" stroke-dasharray="6,4" />
        <text x="725" y="168" font-family="'Noto Sans Bengali', 'Hind Siliguri', sans-serif" font-weight="700" font-size="32" fill="#2d1f05" text-anchor="middle">ব্র্যান্ড ওয়ারেন্টি সহ</text>
        <!-- Pin -->
        <circle cx="909" cy="126" r="9" fill="url(#brassPin)" filter="url(#shadow-soft)" />
        <line x1="909" y1="126" x2="917" y2="138" stroke="#333" stroke-width="2" />
      </g>
    </g>

    <!-- Main Typography -->
    <g>
      <text x="95" y="320" font-family="'Noto Sans Bengali', 'Hind Siliguri', sans-serif" font-weight="900" font-size="76" fill="#0d2847" letter-spacing="-1">স্মার্ট ইলেকট্রনিক্স ও টেক</text>
      <text x="95" y="415" font-family="'Noto Sans Bengali', 'Hind Siliguri', sans-serif" font-weight="900" font-size="76" fill="#0d2847" letter-spacing="-1">গ্যাজেটস</text>
      <text x="95" y="505" font-family="'Segoe UI', Roboto, Helvetica, sans-serif" font-weight="800" font-size="54" fill="#0284c7" letter-spacing="0.5">Gadgets &amp; Accessories</text>
      
      <!-- Description Paragraph -->
      <text x="95" y="590" font-family="'Noto Sans Bengali', 'Hind Siliguri', sans-serif" font-weight="600" font-size="28" fill="#1e293b" opacity="0.95">স্মার্টওয়াচ, প্রিমিয়াম নয়েজ ক্যানসেলিং হেডফোন, মেকানিক্যাল</text>
      <text x="95" y="635" font-family="'Noto Sans Bengali', 'Hind Siliguri', sans-serif" font-weight="600" font-size="28" fill="#1e293b" opacity="0.95">কীবোর্ড এবং হাই-স্পিড ফাস্ট চার্জার।</text>
    </g>

    <!-- Interactive Buttons on Kraft Paper -->
    <g transform="translate(95, 720)" filter="url(#shadow)">
      <!-- Green Stitched Fabric CTA Button -->
      <g>
        <rect x="0" y="0" width="410" height="98" rx="8" fill="#3b7a57" />
        <rect x="4" y="4" width="402" height="90" rx="6" fill="none" stroke="rgba(255,255,255,0.4)" stroke-width="2.5" stroke-dasharray="8,5" />
        <text x="180" y="62" font-family="'Noto Sans Bengali', 'Hind Siliguri', sans-serif" font-weight="700" font-size="33" fill="#ffffff" text-anchor="middle">ইলেকট্রনিক্স এক্সপ্লোর করুন</text>
        <path d="M 330 52 L 360 52 M 350 42 L 362 52 L 350 62" stroke="#ffffff" stroke-width="4" stroke-linecap="round" stroke-linejoin="round" fill="none"/>
        <!-- Stitch String Tag on left -->
        <circle cx="22" cy="49" r="6" fill="#2d5e43" stroke="#fff" stroke-width="1.5" />
      </g>

      <!-- Parchment Paper "হট ডিলস দেখুন" Button -->
      <g transform="translate(450, 6)">
        <rect x="0" y="0" width="280" height="86" rx="6" fill="#fdfaf3" stroke="#cfba9a" stroke-width="1.5" />
        <text x="140" y="55" font-family="'Noto Sans Bengali', 'Hind Siliguri', sans-serif" font-weight="700" font-size="30" fill="#1e293b" text-anchor="middle">হট ডিলস দেখুন</text>
        <!-- Mini Pushpin -->
        <circle cx="20" cy="18" r="4.5" fill="url(#brassPin)" />
      </g>
    </g>

    <!-- Wooden Crate Stamp Logo at Bottom Center -->
    <g transform="translate(880, 770)" filter="url(#shadow-soft)">
      <!-- Wooden Crate Border Box -->
      <rect x="0" y="0" width="560" height="230" rx="10" fill="#a47551" stroke="#684729" stroke-width="8" />
      <!-- Planks inner lines -->
      <line x1="0" y1="75" x2="560" y2="75" stroke="#684729" stroke-width="4" />
      <line x1="0" y1="155" x2="560" y2="155" stroke="#684729" stroke-width="4" />
      <!-- Bolts -->
      <circle cx="20" cy="20" r="5" fill="#3e2723" />
      <circle cx="540" cy="20" r="5" fill="#3e2723" />
      <circle cx="20" cy="210" r="5" fill="#3e2723" />
      <circle cx="540" cy="210" r="5" fill="#3e2723" />
      <!-- Engraved/Burned Brand Text -->
      <text x="280" y="145" font-family="'Noto Sans Bengali', 'Hind Siliguri', sans-serif" font-weight="900" font-size="70" fill="#2c1a0e" text-anchor="middle" letter-spacing="2">নিরাপদ ক্রয়</text>
    </g>

    <!-- Wooden Craft Accessories (Beads, Arrows, Strings) on Bottom Right -->
    <g transform="translate(1520, 760)">
      <!-- Beads necklace -->
      <ellipse cx="60" cy="60" rx="20" ry="24" fill="#a8c599" stroke="#5d8a4e" stroke-width="2" />
      <ellipse cx="105" cy="40" rx="22" ry="26" fill="#e8d8b8" stroke="#aa8855" stroke-width="2" />
      <ellipse cx="150" cy="65" rx="20" ry="24" fill="#2d7a57" stroke="#1d4d37" stroke-width="2" />
      <!-- Wooden Craft Arrows -->
      <path d="M 120 140 L 260 80 M 230 65 L 262 80 L 245 105" stroke="#a47551" stroke-width="6" stroke-linecap="round" fill="none"/>
      <path d="M 120 180 L 260 140 M 235 125 L 262 140 L 245 160" stroke="#a47551" stroke-width="6" stroke-linecap="round" fill="none"/>
    </g>
  

      <!-- Right Side Wooden Board with Electronics Gadgets -->
      <g filter="url(#shadow-deep)">
        <rect x="1100" y="55" width="760" height="660" rx="8" fill="url(#woodPlank)" stroke="#3e2723" stroke-width="6" />
        <line x1="1100" y1="220" x2="1860" y2="220" stroke="rgba(0,0,0,0.25)" stroke-width="3" />
        <line x1="1100" y1="440" x2="1860" y2="440" stroke="rgba(0,0,0,0.25)" stroke-width="3" />

        <!-- Over-Ear ANC Headphones (Top Left) -->
        <g transform="translate(1150, 90)" filter="url(#shadow)">
          <!-- Headband arch -->
          <path d="M 50 180 C 50 20, 270 20, 270 180" fill="none" stroke="#1e293b" stroke-width="26" stroke-linecap="round" />
          <path d="M 60 170 C 60 35, 260 35, 260 170" fill="none" stroke="#334155" stroke-width="12" stroke-linecap="round" />
          <!-- Ear cups -->
          <ellipse cx="50" cy="220" rx="35" ry="55" fill="#0f172a" stroke="#475569" stroke-width="3" />
          <ellipse cx="270" cy="220" rx="35" ry="55" fill="#0f172a" stroke="#475569" stroke-width="3" />
        </g>

        <!-- Smartwatch (Top Center) -->
        <g transform="translate(1480, 110)" filter="url(#shadow)">
          <!-- Black Silicone Strap -->
          <rect x="50" y="0" width="55" height="520" rx="8" fill="#18181b" stroke="#27272a" stroke-width="2" />
          <!-- Watch Case -->
          <rect x="30" y="180" width="95" height="120" rx="26" fill="#09090b" stroke="#71717a" stroke-width="4" />
          <!-- Active Screen Face -->
          <rect x="40" y="190" width="75" height="100" rx="18" fill="#0284c7" opacity="0.9" />
          <text x="77" y="240" font-family="'Segoe UI', sans-serif" font-weight="800" font-size="28" fill="#ffffff" text-anchor="middle">10:09</text>
          <text x="77" y="270" font-family="'Segoe UI', sans-serif" font-size="16" fill="#e0f2fe" text-anchor="middle">⚡ 85%</text>
        </g>

        <!-- Braided Cables Coil (Top Right) -->
        <g transform="translate(1640, 90)" filter="url(#shadow-soft)">
          <ellipse cx="80" cy="80" rx="70" ry="70" fill="none" stroke="#475569" stroke-width="14" stroke-dasharray="8,4" />
          <ellipse cx="80" cy="80" rx="50" ry="50" fill="none" stroke="#334155" stroke-width="14" stroke-dasharray="8,4" />
          <rect x="68" y="145" width="24" height="40" rx="4" fill="#94a3b8" />
          <rect x="74" y="185" width="12" height="20" rx="2" fill="#cbd5e1" />
        </g>

        <!-- Mechanical Keyboard (Bottom of Wood Board) -->
        <g transform="translate(1140, 480)" filter="url(#shadow)">
          <rect x="0" y="0" width="370" height="165" rx="10" fill="#334155" stroke="#1e293b" stroke-width="4" />
          <!-- Keycaps Grid -->
          <g fill="#f1f5f9" stroke="#94a3b8" stroke-width="1.5">
            <!-- Row 1 -->
            <rect x="15" y="15" width="22" height="22" rx="4" fill="#ef4444" />
            <rect x="42" y="15" width="22" height="22" rx="4" />
            <rect x="69" y="15" width="22" height="22" rx="4" />
            <rect x="96" y="15" width="22" height="22" rx="4" />
            <rect x="123" y="15" width="22" height="22" rx="4" />
            <rect x="150" y="15" width="22" height="22" rx="4" />
            <rect x="177" y="15" width="22" height="22" rx="4" />
            <rect x="204" y="15" width="22" height="22" rx="4" />
            <rect x="231" y="15" width="22" height="22" rx="4" />
            <rect x="258" y="15" width="22" height="22" rx="4" />
            <rect x="285" y="15" width="22" height="22" rx="4" />
            <rect x="312" y="15" width="42" height="22" rx="4" fill="#3b82f6" />
            <!-- Row 2 -->
            <rect x="15" y="45" width="32" height="22" rx="4" fill="#10b981" />
            <rect x="52" y="45" width="22" height="22" rx="4" />
            <rect x="79" y="45" width="22" height="22" rx="4" />
            <rect x="106" y="45" width="22" height="22" rx="4" />
            <rect x="133" y="45" width="22" height="22" rx="4" />
            <rect x="160" y="45" width="22" height="22" rx="4" />
            <rect x="187" y="45" width="22" height="22" rx="4" />
            <rect x="214" y="45" width="22" height="22" rx="4" />
            <rect x="241" y="45" width="22" height="22" rx="4" />
            <rect x="268" y="45" width="22" height="22" rx="4" />
            <rect x="295" y="45" width="59" height="22" rx="4" fill="#eab308" />
            <!-- Row 3 -->
            <rect x="15" y="75" width="42" height="22" rx="4" />
            <rect x="62" y="75" width="22" height="22" rx="4" />
            <rect x="89" y="75" width="22" height="22" rx="4" />
            <rect x="116" y="75" width="22" height="22" rx="4" />
            <rect x="143" y="75" width="22" height="22" rx="4" />
            <rect x="170" y="75" width="22" height="22" rx="4" />
            <rect x="197" y="75" width="22" height="22" rx="4" />
            <rect x="224" y="75" width="22" height="22" rx="4" />
            <rect x="251" y="75" width="22" height="22" rx="4" />
            <rect x="278" y="75" width="76" height="22" rx="4" fill="#06b6d4" />
            <!-- Spacebar Row -->
            <rect x="15" y="105" width="35" height="22" rx="4" />
            <rect x="55" y="105" width="35" height="22" rx="4" />
            <rect x="95" y="105" width="160" height="22" rx="4" fill="#f8fafc" />
            <rect x="260" y="105" width="30" height="22" rx="4" />
            <rect x="295" y="105" width="59" height="22" rx="4" fill="#ef4444" />
          </g>
        </g>

        <!-- Braided Cable Coil Bottom -->
        <g transform="translate(1640, 480)" filter="url(#shadow-soft)">
          <ellipse cx="80" cy="80" rx="75" ry="75" fill="none" stroke="#475569" stroke-width="14" stroke-dasharray="8,4" />
          <ellipse cx="80" cy="80" rx="55" ry="55" fill="none" stroke="#334155" stroke-width="14" stroke-dasharray="8,4" />
        </g>
      </g>
    </svg>
  